<mxfile host="app.diagrams.net" agent="Mozilla/5.0 (X11; Linux x86_64; rv:137.0) Gecko/20100101 Firefox/137.0" version="27.1.4">
  <diagram name="Strona-1" id="T_QYi0JufMq-E7Ld2X8Z">
    <mxGraphModel dx="3155" dy="2881" grid="1" gridSize="10" guides="1" tooltips="1" connect="1" arrows="1" fold="1" page="1" pageScale="1" pageWidth="827" pageHeight="1169" math="0" shadow="0">
      <root>
        <mxCell id="0" />
        <mxCell id="1" parent="0" />
        <mxCell id="Cmrw6GEEKVq2yBdXiP8Q-26" value="" style="group;strokeWidth=2;" vertex="1" connectable="0" parent="1">
          <mxGeometry x="601" y="303" width="240" height="120" as="geometry" />
        </mxCell>
        <mxCell id="Cmrw6GEEKVq2yBdXiP8Q-28" value="" style="rounded=0;whiteSpace=wrap;html=1;" vertex="1" parent="Cmrw6GEEKVq2yBdXiP8Q-26">
          <mxGeometry width="230" height="120" as="geometry" />
        </mxCell>
        <mxCell id="Cmrw6GEEKVq2yBdXiP8Q-29" value="&lt;div&gt;IN&lt;/div&gt;" style="text;html=1;align=center;verticalAlign=middle;whiteSpace=wrap;rounded=0;horizontal=0;fontSize=26;" vertex="1" parent="Cmrw6GEEKVq2yBdXiP8Q-26">
          <mxGeometry y="42" width="60" height="36" as="geometry" />
        </mxCell>
        <mxCell id="Cmrw6GEEKVq2yBdXiP8Q-31" value="&lt;div&gt;Token ID&lt;/div&gt;&lt;div&gt;(&lt;b&gt;TT&lt;/b&gt;)&lt;/div&gt;" style="rounded=0;whiteSpace=wrap;html=1;fontSize=19;" vertex="1" parent="Cmrw6GEEKVq2yBdXiP8Q-26">
          <mxGeometry x="55" y="24" width="120" height="72" as="geometry" />
        </mxCell>
        <mxCell id="Cmrw6GEEKVq2yBdXiP8Q-30" value="OUT" style="text;html=1;align=center;verticalAlign=middle;whiteSpace=wrap;rounded=0;horizontal=0;fontSize=26;" vertex="1" parent="Cmrw6GEEKVq2yBdXiP8Q-26">
          <mxGeometry x="180" y="42" width="60" height="36" as="geometry" />
        </mxCell>
        <mxCell id="ovYm9qxonTw8WCcWxQ5m-20" style="edgeStyle=orthogonalEdgeStyle;rounded=0;orthogonalLoop=1;jettySize=auto;html=1;exitX=0;exitY=0.5;exitDx=0;exitDy=0;exitPerimeter=0;entryX=0.25;entryY=0;entryDx=0;entryDy=0;" parent="1" source="ovYm9qxonTw8WCcWxQ5m-3" target="ovYm9qxonTw8WCcWxQ5m-32" edge="1">
          <mxGeometry relative="1" as="geometry">
            <mxPoint x="180" y="270" as="targetPoint" />
            <Array as="points">
              <mxPoint x="188" y="190" />
            </Array>
          </mxGeometry>
        </mxCell>
        <mxCell id="ovYm9qxonTw8WCcWxQ5m-21" value="&lt;div&gt;&lt;font style=&quot;font-size: 14px;&quot;&gt;genesis&lt;/font&gt;&lt;/div&gt;" style="edgeLabel;html=1;align=center;verticalAlign=middle;resizable=0;points=[];" parent="ovYm9qxonTw8WCcWxQ5m-20" vertex="1" connectable="0">
          <mxGeometry x="-0.3622" y="3" relative="1" as="geometry">
            <mxPoint x="19" y="-25" as="offset" />
          </mxGeometry>
        </mxCell>
        <mxCell id="ovYm9qxonTw8WCcWxQ5m-3" value="&lt;div align=&quot;left&quot;&gt;&lt;pre&gt;TokenInfo {&lt;br&gt;  symbol: &lt;b&gt;TT&lt;/b&gt;&lt;br&gt;  name: Test Token&lt;br&gt;  decimals: 18&lt;br&gt;  type: Native&lt;br&gt;  genesis: 0x111..&lt;br&gt;}&lt;/pre&gt;&lt;/div&gt;" style="shape=note;whiteSpace=wrap;html=1;backgroundOutline=1;darkOpacity=0.05;align=left;spacing=10;" parent="1" vertex="1">
          <mxGeometry x="240" y="120" width="200" height="140" as="geometry" />
        </mxCell>
        <mxCell id="ovYm9qxonTw8WCcWxQ5m-26" value="" style="endArrow=none;html=1;rounded=0;dashed=1;strokeWidth=2;dashPattern=8 8;" parent="1" edge="1">
          <mxGeometry width="50" height="50" relative="1" as="geometry">
            <mxPoint x="100" y="1220" as="sourcePoint" />
            <mxPoint x="100" y="10" as="targetPoint" />
          </mxGeometry>
        </mxCell>
        <mxCell id="ovYm9qxonTw8WCcWxQ5m-27" value="&lt;font&gt;Autonomi&lt;/font&gt;" style="text;html=1;align=center;verticalAlign=middle;whiteSpace=wrap;rounded=0;shadow=0;fontSize=28;" parent="1" vertex="1">
          <mxGeometry x="215" y="30" width="60" height="30" as="geometry" />
        </mxCell>
        <mxCell id="ovYm9qxonTw8WCcWxQ5m-28" value="&lt;div&gt;&lt;font&gt;Arbitrum (EVM)&lt;/font&gt;&lt;/div&gt;&lt;div&gt;&lt;font&gt;&lt;br&gt;&lt;/font&gt;&lt;/div&gt;" style="text;html=1;align=center;verticalAlign=middle;whiteSpace=wrap;rounded=0;shadow=0;fontSize=28;" parent="1" vertex="1">
          <mxGeometry x="-90" y="60" width="60" height="30" as="geometry" />
        </mxCell>
        <mxCell id="Cmrw6GEEKVq2yBdXiP8Q-42" style="edgeStyle=orthogonalEdgeStyle;rounded=0;orthogonalLoop=1;jettySize=auto;html=1;exitX=0;exitY=0.75;exitDx=0;exitDy=0;exitPerimeter=0;entryX=0.75;entryY=1;entryDx=0;entryDy=0;" edge="1" parent="1" source="ovYm9qxonTw8WCcWxQ5m-31" target="ovYm9qxonTw8WCcWxQ5m-50">
          <mxGeometry relative="1" as="geometry" />
        </mxCell>
        <mxCell id="Cmrw6GEEKVq2yBdXiP8Q-47" value="&lt;font style=&quot;font-size: 14px;&quot;&gt;Contract&lt;/font&gt;" style="edgeLabel;html=1;align=center;verticalAlign=middle;resizable=0;points=[];" vertex="1" connectable="0" parent="Cmrw6GEEKVq2yBdXiP8Q-42">
          <mxGeometry x="-0.8554" relative="1" as="geometry">
            <mxPoint as="offset" />
          </mxGeometry>
        </mxCell>
        <mxCell id="Cmrw6GEEKVq2yBdXiP8Q-43" style="edgeStyle=orthogonalEdgeStyle;rounded=0;orthogonalLoop=1;jettySize=auto;html=1;exitX=0;exitY=0.5;exitDx=0;exitDy=0;exitPerimeter=0;entryX=0.5;entryY=1;entryDx=0;entryDy=0;" edge="1" parent="1" source="ovYm9qxonTw8WCcWxQ5m-31" target="ovYm9qxonTw8WCcWxQ5m-28">
          <mxGeometry relative="1" as="geometry">
            <Array as="points">
              <mxPoint x="60" y="840" />
              <mxPoint x="60" y="150" />
              <mxPoint x="-60" y="150" />
            </Array>
          </mxGeometry>
        </mxCell>
        <mxCell id="Cmrw6GEEKVq2yBdXiP8Q-45" value="Chain ID" style="edgeLabel;html=1;align=center;verticalAlign=middle;resizable=0;points=[];spacing=9;fontSize=14;" vertex="1" connectable="0" parent="Cmrw6GEEKVq2yBdXiP8Q-43">
          <mxGeometry x="-0.8829" relative="1" as="geometry">
            <mxPoint x="10" as="offset" />
          </mxGeometry>
        </mxCell>
        <mxCell id="ovYm9qxonTw8WCcWxQ5m-31" value="&lt;div align=&quot;left&quot;&gt;&lt;pre&gt;TokenInfo {&lt;br&gt;  symbol: &lt;b&gt;WBTC&lt;/b&gt;&lt;br&gt;  name: Wrapped BTC&lt;br&gt;  decimals: 8&lt;br&gt;  type: ERC-20&lt;br&gt;  chainId: 42161&lt;br&gt;  contract: 0x112...&lt;br&gt;}&lt;/pre&gt;&lt;/div&gt;" style="shape=note;whiteSpace=wrap;html=1;backgroundOutline=1;darkOpacity=0.05;align=left;spacing=10;points=[[0,0,0,0,0],[0,0,0,85,0],[0,0,0,170,0],[0,0,0,185,15],[0,0,0,200,30],[0,0,0,200,85],[0,0.5,0,0,0],[0,0.75,0,0,0],[0,1,0,0,0],[0.5,0,0,0,0],[0.5,1,0,0,0],[1,1,0,0,0]];" parent="1" vertex="1">
          <mxGeometry x="300" y="770" width="200" height="140" as="geometry" />
        </mxCell>
        <mxCell id="ovYm9qxonTw8WCcWxQ5m-36" value="" style="group;strokeWidth=2;fillColor=none;strokeColor=none;" parent="1" vertex="1" connectable="0">
          <mxGeometry x="130" y="350" width="240" height="120" as="geometry" />
        </mxCell>
        <mxCell id="ovYm9qxonTw8WCcWxQ5m-32" value="" style="rounded=0;whiteSpace=wrap;html=1;" parent="ovYm9qxonTw8WCcWxQ5m-36" vertex="1">
          <mxGeometry width="230" height="120" as="geometry" />
        </mxCell>
        <mxCell id="ovYm9qxonTw8WCcWxQ5m-33" value="&lt;div&gt;IN&lt;/div&gt;" style="text;html=1;align=center;verticalAlign=middle;whiteSpace=wrap;rounded=0;horizontal=0;fontSize=26;" parent="ovYm9qxonTw8WCcWxQ5m-36" vertex="1">
          <mxGeometry y="42" width="60" height="36" as="geometry" />
        </mxCell>
        <mxCell id="ovYm9qxonTw8WCcWxQ5m-34" value="OUT" style="text;html=1;align=center;verticalAlign=middle;whiteSpace=wrap;rounded=0;horizontal=0;fontSize=26;" parent="ovYm9qxonTw8WCcWxQ5m-36" vertex="1">
          <mxGeometry x="180" y="42" width="60" height="36" as="geometry" />
        </mxCell>
        <mxCell id="ovYm9qxonTw8WCcWxQ5m-35" value="&lt;div&gt;Token ID&lt;/div&gt;&lt;div&gt;(&lt;b&gt;TT&lt;/b&gt;)&lt;/div&gt;" style="rounded=0;whiteSpace=wrap;html=1;fontSize=19;" parent="ovYm9qxonTw8WCcWxQ5m-36" vertex="1">
          <mxGeometry x="55" y="24" width="120" height="72" as="geometry" />
        </mxCell>
        <mxCell id="ovYm9qxonTw8WCcWxQ5m-37" style="edgeStyle=orthogonalEdgeStyle;rounded=0;orthogonalLoop=1;jettySize=auto;html=1;exitX=0.75;exitY=0;exitDx=0;exitDy=0;entryX=0.5;entryY=1;entryDx=0;entryDy=0;entryPerimeter=0;" parent="1" source="ovYm9qxonTw8WCcWxQ5m-35" target="ovYm9qxonTw8WCcWxQ5m-3" edge="1">
          <mxGeometry relative="1" as="geometry" />
        </mxCell>
        <mxCell id="ovYm9qxonTw8WCcWxQ5m-40" value="" style="group;strokeWidth=2;" parent="1" vertex="1" connectable="0">
          <mxGeometry x="160" y="620" width="240" height="120" as="geometry" />
        </mxCell>
        <mxCell id="ovYm9qxonTw8WCcWxQ5m-41" value="" style="rounded=0;whiteSpace=wrap;html=1;" parent="ovYm9qxonTw8WCcWxQ5m-40" vertex="1">
          <mxGeometry width="230" height="120" as="geometry" />
        </mxCell>
        <mxCell id="ovYm9qxonTw8WCcWxQ5m-42" value="&lt;div&gt;IN&lt;/div&gt;" style="text;html=1;align=center;verticalAlign=middle;whiteSpace=wrap;rounded=0;horizontal=0;fontSize=26;" parent="ovYm9qxonTw8WCcWxQ5m-40" vertex="1">
          <mxGeometry y="42" width="60" height="36" as="geometry" />
        </mxCell>
        <mxCell id="ovYm9qxonTw8WCcWxQ5m-43" value="OUT" style="text;html=1;align=center;verticalAlign=middle;whiteSpace=wrap;rounded=0;horizontal=0;fontSize=26;" parent="ovYm9qxonTw8WCcWxQ5m-40" vertex="1">
          <mxGeometry x="180" y="42" width="60" height="36" as="geometry" />
        </mxCell>
        <mxCell id="ovYm9qxonTw8WCcWxQ5m-44" value="&lt;div&gt;Token ID&lt;/div&gt;&lt;div&gt;(&lt;b&gt;WBTC&lt;/b&gt;)&lt;/div&gt;" style="rounded=0;whiteSpace=wrap;html=1;fontSize=19;" parent="ovYm9qxonTw8WCcWxQ5m-40" vertex="1">
          <mxGeometry x="55" y="24" width="120" height="72" as="geometry" />
        </mxCell>
        <mxCell id="ovYm9qxonTw8WCcWxQ5m-45" style="edgeStyle=orthogonalEdgeStyle;rounded=0;orthogonalLoop=1;jettySize=auto;html=1;exitX=0.5;exitY=1;exitDx=0;exitDy=0;entryX=0;entryY=0.187;entryDx=0;entryDy=0;entryPerimeter=0;" parent="1" source="ovYm9qxonTw8WCcWxQ5m-44" target="ovYm9qxonTw8WCcWxQ5m-31" edge="1">
          <mxGeometry relative="1" as="geometry" />
        </mxCell>
        <mxCell id="ovYm9qxonTw8WCcWxQ5m-51" style="edgeStyle=orthogonalEdgeStyle;rounded=0;orthogonalLoop=1;jettySize=auto;html=1;exitX=0.5;exitY=0;exitDx=0;exitDy=0;entryX=0.5;entryY=1;entryDx=0;entryDy=0;" parent="1" source="ovYm9qxonTw8WCcWxQ5m-46" target="ovYm9qxonTw8WCcWxQ5m-47" edge="1">
          <mxGeometry relative="1" as="geometry" />
        </mxCell>
        <mxCell id="ovYm9qxonTw8WCcWxQ5m-52" style="edgeStyle=orthogonalEdgeStyle;rounded=0;orthogonalLoop=1;jettySize=auto;html=1;exitX=0;exitY=0.5;exitDx=0;exitDy=0;entryX=1;entryY=0.5;entryDx=0;entryDy=0;" parent="1" source="ovYm9qxonTw8WCcWxQ5m-46" target="ovYm9qxonTw8WCcWxQ5m-50" edge="1">
          <mxGeometry relative="1" as="geometry" />
        </mxCell>
        <mxCell id="ovYm9qxonTw8WCcWxQ5m-46" value="&lt;div align=&quot;center&quot;&gt;Burn transaction&lt;/div&gt;&lt;div&gt;&lt;br&gt;&lt;/div&gt;&lt;div&gt;to: Bridge Contract&lt;/div&gt;&lt;div&gt;token: WBTC&lt;/div&gt;&lt;div&gt;&lt;br&gt;&lt;/div&gt;&lt;div&gt;amount: 400&lt;/div&gt;" style="rhombus;whiteSpace=wrap;html=1;" parent="1" vertex="1">
          <mxGeometry x="-181" y="510" width="220" height="220" as="geometry" />
        </mxCell>
        <mxCell id="ovYm9qxonTw8WCcWxQ5m-47" value="&lt;div align=&quot;center&quot;&gt;Bridge Contract&lt;/div&gt;&lt;div align=&quot;center&quot;&gt;&lt;br&gt;&lt;/div&gt;&lt;div align=&quot;center&quot;&gt;balance: 10000500&lt;/div&gt;" style="rounded=0;whiteSpace=wrap;html=1;align=center;spacing=10;" parent="1" vertex="1">
          <mxGeometry x="-290" y="220" width="220" height="120" as="geometry" />
        </mxCell>
        <mxCell id="ovYm9qxonTw8WCcWxQ5m-48" style="edgeStyle=orthogonalEdgeStyle;rounded=0;orthogonalLoop=1;jettySize=auto;html=1;exitX=0;exitY=0;exitDx=0;exitDy=0;entryX=1;entryY=0.5;entryDx=0;entryDy=0;" parent="1" source="ovYm9qxonTw8WCcWxQ5m-41" target="ovYm9qxonTw8WCcWxQ5m-46" edge="1">
          <mxGeometry relative="1" as="geometry">
            <Array as="points">
              <mxPoint x="130" y="620" />
              <mxPoint x="130" y="620" />
            </Array>
          </mxGeometry>
        </mxCell>
        <mxCell id="ovYm9qxonTw8WCcWxQ5m-49" value="#1" style="text;html=1;align=center;verticalAlign=middle;resizable=0;points=[];autosize=1;strokeColor=none;fillColor=none;" parent="1" vertex="1">
          <mxGeometry x="126" y="620" width="40" height="30" as="geometry" />
        </mxCell>
        <mxCell id="ovYm9qxonTw8WCcWxQ5m-50" value="&lt;div align=&quot;center&quot;&gt;WBTC Contract (ERC-20)&lt;/div&gt;&lt;div&gt;&lt;div align=&quot;left&quot;&gt;&lt;pre&gt;  symbol: &lt;b&gt;WBTC&lt;/b&gt;&lt;br&gt;  name: Wrapped BTC&lt;br&gt;  decimals: 8&lt;br&gt;&lt;/pre&gt;&lt;/div&gt;&lt;/div&gt;" style="rounded=0;whiteSpace=wrap;html=1;align=center;spacing=10;" parent="1" vertex="1">
          <mxGeometry x="-500" y="560" width="220" height="120" as="geometry" />
        </mxCell>
        <mxCell id="ovYm9qxonTw8WCcWxQ5m-55" value="#1: 400" style="text;html=1;align=center;verticalAlign=middle;resizable=0;points=[];autosize=1;strokeColor=none;fillColor=none;" parent="1" vertex="1">
          <mxGeometry x="400" y="620" width="60" height="30" as="geometry" />
        </mxCell>
        <mxCell id="ovYm9qxonTw8WCcWxQ5m-57" value="#1: 40000" style="text;html=1;align=center;verticalAlign=middle;resizable=0;points=[];autosize=1;strokeColor=none;fillColor=none;" parent="1" vertex="1">
          <mxGeometry x="372" y="350" width="80" height="30" as="geometry" />
        </mxCell>
        <mxCell id="ovYm9qxonTw8WCcWxQ5m-75" value="" style="group" parent="1" vertex="1" connectable="0">
          <mxGeometry x="184" y="1020" width="240" height="120" as="geometry" />
        </mxCell>
        <mxCell id="ovYm9qxonTw8WCcWxQ5m-77" value="" style="rounded=0;whiteSpace=wrap;html=1;" parent="ovYm9qxonTw8WCcWxQ5m-75" vertex="1">
          <mxGeometry width="230" height="120" as="geometry" />
        </mxCell>
        <mxCell id="ovYm9qxonTw8WCcWxQ5m-78" value="&lt;div&gt;IN&lt;/div&gt;" style="text;html=1;align=center;verticalAlign=middle;whiteSpace=wrap;rounded=0;horizontal=0;fontSize=26;" parent="ovYm9qxonTw8WCcWxQ5m-75" vertex="1">
          <mxGeometry y="42" width="60" height="36" as="geometry" />
        </mxCell>
        <mxCell id="ovYm9qxonTw8WCcWxQ5m-79" value="OUT" style="text;html=1;align=center;verticalAlign=middle;whiteSpace=wrap;rounded=0;horizontal=0;fontSize=26;" parent="ovYm9qxonTw8WCcWxQ5m-75" vertex="1">
          <mxGeometry x="180" y="42" width="60" height="36" as="geometry" />
        </mxCell>
        <mxCell id="ovYm9qxonTw8WCcWxQ5m-80" value="&lt;div&gt;Token ID&lt;/div&gt;&lt;div&gt;(&lt;b&gt;WBTC&lt;/b&gt;)&lt;/div&gt;" style="rounded=0;whiteSpace=wrap;html=1;fontSize=19;" parent="ovYm9qxonTw8WCcWxQ5m-75" vertex="1">
          <mxGeometry x="55" y="24" width="120" height="72" as="geometry" />
        </mxCell>
        <mxCell id="ovYm9qxonTw8WCcWxQ5m-86" style="edgeStyle=orthogonalEdgeStyle;rounded=0;orthogonalLoop=1;jettySize=auto;html=1;exitX=0;exitY=0.5;exitDx=0;exitDy=0;entryX=0.5;entryY=1;entryDx=0;entryDy=0;" parent="1" source="ovYm9qxonTw8WCcWxQ5m-82" target="ovYm9qxonTw8WCcWxQ5m-50" edge="1">
          <mxGeometry relative="1" as="geometry" />
        </mxCell>
        <mxCell id="ovYm9qxonTw8WCcWxQ5m-87" style="edgeStyle=orthogonalEdgeStyle;rounded=0;orthogonalLoop=1;jettySize=auto;html=1;exitX=0.5;exitY=0;exitDx=0;exitDy=0;entryX=0.25;entryY=1;entryDx=0;entryDy=0;" parent="1" source="ovYm9qxonTw8WCcWxQ5m-82" target="ovYm9qxonTw8WCcWxQ5m-47" edge="1">
          <mxGeometry relative="1" as="geometry">
            <Array as="points">
              <mxPoint x="-180" y="790" />
              <mxPoint x="-235" y="790" />
            </Array>
          </mxGeometry>
        </mxCell>
        <mxCell id="ovYm9qxonTw8WCcWxQ5m-82" value="&lt;div align=&quot;center&quot;&gt;Burn transaction&lt;/div&gt;&lt;div&gt;&lt;br&gt;&lt;/div&gt;&lt;div&gt;to: Bridge Contract&lt;/div&gt;&lt;div&gt;token: WBTC&lt;/div&gt;&lt;div&gt;&lt;br&gt;&lt;/div&gt;&lt;div&gt;amount: 100&lt;/div&gt;" style="rhombus;whiteSpace=wrap;html=1;" parent="1" vertex="1">
          <mxGeometry x="-290" y="910" width="220" height="220" as="geometry" />
        </mxCell>
        <mxCell id="ovYm9qxonTw8WCcWxQ5m-83" style="edgeStyle=orthogonalEdgeStyle;rounded=0;orthogonalLoop=1;jettySize=auto;html=1;exitX=0;exitY=0;exitDx=0;exitDy=0;entryX=1;entryY=0.5;entryDx=0;entryDy=0;" parent="1" source="ovYm9qxonTw8WCcWxQ5m-77" target="ovYm9qxonTw8WCcWxQ5m-82" edge="1">
          <mxGeometry relative="1" as="geometry">
            <Array as="points">
              <mxPoint x="21" y="1020" />
              <mxPoint x="21" y="1020" />
            </Array>
          </mxGeometry>
        </mxCell>
        <mxCell id="ovYm9qxonTw8WCcWxQ5m-84" value="#1" style="text;html=1;align=center;verticalAlign=middle;resizable=0;points=[];autosize=1;strokeColor=none;fillColor=none;" parent="1" vertex="1">
          <mxGeometry x="150" y="1020" width="40" height="30" as="geometry" />
        </mxCell>
        <mxCell id="ovYm9qxonTw8WCcWxQ5m-85" value="#1: 100" style="text;html=1;align=center;verticalAlign=middle;resizable=0;points=[];autosize=1;strokeColor=none;fillColor=none;" parent="1" vertex="1">
          <mxGeometry x="424" y="1020" width="60" height="30" as="geometry" />
        </mxCell>
        <mxCell id="ovYm9qxonTw8WCcWxQ5m-88" style="edgeStyle=orthogonalEdgeStyle;rounded=0;orthogonalLoop=1;jettySize=auto;html=1;exitX=0.75;exitY=0;exitDx=0;exitDy=0;entryX=0.148;entryY=1;entryDx=0;entryDy=0;entryPerimeter=0;" parent="1" source="ovYm9qxonTw8WCcWxQ5m-80" target="ovYm9qxonTw8WCcWxQ5m-31" edge="1">
          <mxGeometry relative="1" as="geometry" />
        </mxCell>
        <mxCell id="Cmrw6GEEKVq2yBdXiP8Q-51" style="edgeStyle=orthogonalEdgeStyle;rounded=0;orthogonalLoop=1;jettySize=auto;html=1;exitX=0.25;exitY=1;exitDx=0;exitDy=0;entryX=0.5;entryY=0;entryDx=0;entryDy=0;dashed=1;dashPattern=8 8;" edge="1" parent="1" source="Cmrw6GEEKVq2yBdXiP8Q-2" target="Cmrw6GEEKVq2yBdXiP8Q-28">
          <mxGeometry relative="1" as="geometry" />
        </mxCell>
        <mxCell id="Cmrw6GEEKVq2yBdXiP8Q-2" value="&lt;div&gt;Wallet&lt;/div&gt;&lt;div&gt;&lt;br&gt;&lt;/div&gt;&lt;div&gt;&lt;b&gt;&lt;font style=&quot;font-size: 22px;&quot;&gt;Alice&lt;/font&gt;&lt;/b&gt;&lt;/div&gt;" style="shape=ext;double=1;rounded=1;whiteSpace=wrap;html=1;strokeWidth=1;perimeterSpacing=0;fillColor=default;shadow=0;glass=0;" vertex="1" parent="1">
          <mxGeometry x="730" y="100" width="250" height="80" as="geometry" />
        </mxCell>
        <mxCell id="Cmrw6GEEKVq2yBdXiP8Q-3" value="&lt;div&gt;Wallet&lt;/div&gt;&lt;div&gt;&lt;br&gt;&lt;/div&gt;&lt;div&gt;&lt;b&gt;&lt;font style=&quot;font-size: 22px;&quot;&gt;Bob&lt;/font&gt;&lt;/b&gt;&lt;/div&gt;" style="shape=ext;double=1;rounded=1;whiteSpace=wrap;html=1;strokeWidth=1;perimeterSpacing=0;fillColor=default;shadow=0;glass=0;" vertex="1" parent="1">
          <mxGeometry x="690" y="980" width="250" height="80" as="geometry" />
        </mxCell>
        <mxCell id="Cmrw6GEEKVq2yBdXiP8Q-10" value="GE0" style="text;html=1;align=center;verticalAlign=middle;resizable=0;points=[];autosize=1;strokeColor=none;fillColor=none;fontSize=23;" vertex="1" parent="1">
          <mxGeometry x="210" y="483" width="70" height="40" as="geometry" />
        </mxCell>
        <mxCell id="Cmrw6GEEKVq2yBdXiP8Q-11" value="GE1" style="text;html=1;align=center;verticalAlign=middle;resizable=0;points=[];autosize=1;strokeColor=none;fillColor=none;fontSize=23;" vertex="1" parent="1">
          <mxGeometry x="160" y="750" width="70" height="40" as="geometry" />
        </mxCell>
        <mxCell id="Cmrw6GEEKVq2yBdXiP8Q-12" value="GE2" style="text;html=1;align=center;verticalAlign=middle;resizable=0;points=[];autosize=1;strokeColor=none;fillColor=none;fontSize=23;" vertex="1" parent="1">
          <mxGeometry x="269" y="1150" width="70" height="40" as="geometry" />
        </mxCell>
        <mxCell id="Cmrw6GEEKVq2yBdXiP8Q-13" value="TX1" style="text;html=1;align=center;verticalAlign=middle;resizable=0;points=[];autosize=1;strokeColor=none;fillColor=none;fontSize=23;" vertex="1" parent="1">
          <mxGeometry x="-50" y="700" width="70" height="40" as="geometry" />
        </mxCell>
        <mxCell id="Cmrw6GEEKVq2yBdXiP8Q-14" value="TX2" style="text;html=1;align=center;verticalAlign=middle;resizable=0;points=[];autosize=1;strokeColor=none;fillColor=none;fontSize=23;" vertex="1" parent="1">
          <mxGeometry x="-140" y="1080" width="70" height="40" as="geometry" />
        </mxCell>
        <mxCell id="Cmrw6GEEKVq2yBdXiP8Q-15" value="" style="group;strokeWidth=2;" vertex="1" connectable="0" parent="1">
          <mxGeometry x="591" y="650" width="240" height="120" as="geometry" />
        </mxCell>
        <mxCell id="Cmrw6GEEKVq2yBdXiP8Q-19" value="OUT" style="text;html=1;align=center;verticalAlign=middle;whiteSpace=wrap;rounded=0;horizontal=0;fontSize=26;" vertex="1" parent="Cmrw6GEEKVq2yBdXiP8Q-15">
          <mxGeometry x="180" y="42" width="60" height="36" as="geometry" />
        </mxCell>
        <mxCell id="Cmrw6GEEKVq2yBdXiP8Q-17" value="" style="rounded=0;whiteSpace=wrap;html=1;" vertex="1" parent="Cmrw6GEEKVq2yBdXiP8Q-15">
          <mxGeometry width="230" height="120" as="geometry" />
        </mxCell>
        <mxCell id="Cmrw6GEEKVq2yBdXiP8Q-18" value="&lt;div&gt;IN&lt;/div&gt;" style="text;html=1;align=center;verticalAlign=middle;whiteSpace=wrap;rounded=0;horizontal=0;fontSize=26;" vertex="1" parent="Cmrw6GEEKVq2yBdXiP8Q-15">
          <mxGeometry y="42" width="60" height="36" as="geometry" />
        </mxCell>
        <mxCell id="Cmrw6GEEKVq2yBdXiP8Q-20" value="&lt;div&gt;Token ID&lt;/div&gt;&lt;div&gt;(&lt;b&gt;WBTC&lt;/b&gt;)&lt;/div&gt;" style="rounded=0;whiteSpace=wrap;html=1;fontSize=19;" vertex="1" parent="Cmrw6GEEKVq2yBdXiP8Q-15">
          <mxGeometry x="55" y="24" width="120" height="72" as="geometry" />
        </mxCell>
        <mxCell id="Cmrw6GEEKVq2yBdXiP8Q-21" style="edgeStyle=orthogonalEdgeStyle;rounded=0;orthogonalLoop=1;jettySize=auto;html=1;exitX=0;exitY=0.25;exitDx=0;exitDy=0;entryX=0.75;entryY=0;entryDx=0;entryDy=0;" edge="1" source="Cmrw6GEEKVq2yBdXiP8Q-17" parent="1" target="ovYm9qxonTw8WCcWxQ5m-41">
          <mxGeometry relative="1" as="geometry">
            <Array as="points">
              <mxPoint x="500" y="680" />
              <mxPoint x="500" y="600" />
              <mxPoint x="333" y="600" />
            </Array>
            <mxPoint x="470" y="650" as="targetPoint" />
          </mxGeometry>
        </mxCell>
        <mxCell id="Cmrw6GEEKVq2yBdXiP8Q-22" value="#1" style="text;html=1;align=center;verticalAlign=middle;resizable=0;points=[];autosize=1;strokeColor=none;fillColor=none;fontColor=light-dark(#000000,#99FF99);" vertex="1" parent="1">
          <mxGeometry x="557" y="646" width="40" height="30" as="geometry" />
        </mxCell>
        <mxCell id="Cmrw6GEEKVq2yBdXiP8Q-23" value="#1: 2000" style="text;html=1;align=left;verticalAlign=middle;resizable=0;points=[];autosize=1;strokeColor=none;fillColor=none;fontColor=light-dark(#000000,#99FF99);" vertex="1" parent="1">
          <mxGeometry x="829" y="651" width="70" height="30" as="geometry" />
        </mxCell>
        <mxCell id="Cmrw6GEEKVq2yBdXiP8Q-24" value="GE4" style="text;html=1;align=center;verticalAlign=middle;resizable=0;points=[];autosize=1;strokeColor=none;fillColor=none;fontSize=23;" vertex="1" parent="1">
          <mxGeometry x="582" y="780" width="70" height="40" as="geometry" />
        </mxCell>
        <mxCell id="Cmrw6GEEKVq2yBdXiP8Q-25" style="edgeStyle=orthogonalEdgeStyle;rounded=0;orthogonalLoop=1;jettySize=auto;html=1;exitX=0.5;exitY=1;exitDx=0;exitDy=0;entryX=0;entryY=0;entryDx=200;entryDy=85;entryPerimeter=0;" edge="1" source="Cmrw6GEEKVq2yBdXiP8Q-20" parent="1" target="ovYm9qxonTw8WCcWxQ5m-31">
          <mxGeometry relative="1" as="geometry">
            <mxPoint x="731" y="826" as="targetPoint" />
          </mxGeometry>
        </mxCell>
        <mxCell id="Cmrw6GEEKVq2yBdXiP8Q-32" style="edgeStyle=orthogonalEdgeStyle;rounded=0;orthogonalLoop=1;jettySize=auto;html=1;exitX=0;exitY=0.25;exitDx=0;exitDy=0;entryX=0.75;entryY=0;entryDx=0;entryDy=0;" edge="1" source="Cmrw6GEEKVq2yBdXiP8Q-28" parent="1" target="ovYm9qxonTw8WCcWxQ5m-32">
          <mxGeometry relative="1" as="geometry">
            <Array as="points">
              <mxPoint x="303" y="333" />
            </Array>
            <mxPoint x="480" y="310" as="targetPoint" />
          </mxGeometry>
        </mxCell>
        <mxCell id="Cmrw6GEEKVq2yBdXiP8Q-33" value="#1" style="text;html=1;align=center;verticalAlign=middle;resizable=0;points=[];autosize=1;strokeColor=none;fillColor=none;fontColor=light-dark(#000000,#99FF99);" vertex="1" parent="1">
          <mxGeometry x="567" y="300" width="40" height="30" as="geometry" />
        </mxCell>
        <mxCell id="Cmrw6GEEKVq2yBdXiP8Q-34" value="#1: 200" style="text;html=1;align=left;verticalAlign=middle;resizable=0;points=[];autosize=1;strokeColor=none;fillColor=none;fontColor=light-dark(#000000,#99FF99);" vertex="1" parent="1">
          <mxGeometry x="836" y="301" width="60" height="30" as="geometry" />
        </mxCell>
        <mxCell id="Cmrw6GEEKVq2yBdXiP8Q-35" value="GE3" style="text;html=1;align=center;verticalAlign=middle;resizable=0;points=[];autosize=1;strokeColor=none;fillColor=none;fontSize=23;" vertex="1" parent="1">
          <mxGeometry x="601" y="430" width="70" height="40" as="geometry" />
        </mxCell>
        <mxCell id="Cmrw6GEEKVq2yBdXiP8Q-36" style="edgeStyle=orthogonalEdgeStyle;rounded=0;orthogonalLoop=1;jettySize=auto;html=1;exitX=0.25;exitY=0;exitDx=0;exitDy=0;entryX=0;entryY=0;entryDx=200;entryDy=85;entryPerimeter=0;" edge="1" source="Cmrw6GEEKVq2yBdXiP8Q-31" parent="1" target="ovYm9qxonTw8WCcWxQ5m-3">
          <mxGeometry relative="1" as="geometry">
            <mxPoint x="741" y="486" as="targetPoint" />
          </mxGeometry>
        </mxCell>
        <mxCell id="ovYm9qxonTw8WCcWxQ5m-56" style="edgeStyle=orthogonalEdgeStyle;rounded=0;orthogonalLoop=1;jettySize=auto;html=1;exitX=1;exitY=0;exitDx=0;exitDy=0;entryX=0.25;entryY=0;entryDx=0;entryDy=0;" parent="1" source="ovYm9qxonTw8WCcWxQ5m-32" edge="1" target="Cmrw6GEEKVq2yBdXiP8Q-28">
          <mxGeometry relative="1" as="geometry">
            <mxPoint x="470" y="350" as="targetPoint" />
            <Array as="points">
              <mxPoint x="460" y="350" />
              <mxPoint x="460" y="280" />
              <mxPoint x="659" y="280" />
            </Array>
          </mxGeometry>
        </mxCell>
        <mxCell id="ovYm9qxonTw8WCcWxQ5m-76" style="edgeStyle=orthogonalEdgeStyle;rounded=0;orthogonalLoop=1;jettySize=auto;html=1;exitX=1;exitY=0;exitDx=0;exitDy=0;entryX=0.25;entryY=1;entryDx=0;entryDy=0;" parent="1" source="ovYm9qxonTw8WCcWxQ5m-77" edge="1" target="Cmrw6GEEKVq2yBdXiP8Q-17">
          <mxGeometry relative="1" as="geometry">
            <mxPoint x="680" y="770" as="targetPoint" />
            <Array as="points">
              <mxPoint x="649" y="1020" />
            </Array>
          </mxGeometry>
        </mxCell>
        <mxCell id="ovYm9qxonTw8WCcWxQ5m-54" style="edgeStyle=orthogonalEdgeStyle;rounded=0;orthogonalLoop=1;jettySize=auto;html=1;exitX=1;exitY=0;exitDx=0;exitDy=0;entryX=0.25;entryY=0;entryDx=0;entryDy=0;" parent="1" source="ovYm9qxonTw8WCcWxQ5m-41" edge="1" target="Cmrw6GEEKVq2yBdXiP8Q-17">
          <mxGeometry relative="1" as="geometry">
            <mxPoint x="480" y="620" as="targetPoint" />
            <Array as="points">
              <mxPoint x="649" y="620" />
            </Array>
          </mxGeometry>
        </mxCell>
        <mxCell id="Cmrw6GEEKVq2yBdXiP8Q-38" style="edgeStyle=orthogonalEdgeStyle;rounded=0;orthogonalLoop=1;jettySize=auto;html=1;exitX=0;exitY=0.5;exitDx=0;exitDy=0;entryX=0.75;entryY=0;entryDx=0;entryDy=0;" edge="1" parent="1" source="Cmrw6GEEKVq2yBdXiP8Q-17" target="ovYm9qxonTw8WCcWxQ5m-77">
          <mxGeometry relative="1" as="geometry">
            <mxPoint x="570" y="910" as="targetPoint" />
            <Array as="points">
              <mxPoint x="550" y="710" />
              <mxPoint x="550" y="1000" />
              <mxPoint x="357" y="1000" />
            </Array>
          </mxGeometry>
        </mxCell>
        <mxCell id="Cmrw6GEEKVq2yBdXiP8Q-39" value="#2" style="text;html=1;align=center;verticalAlign=middle;resizable=0;points=[];autosize=1;strokeColor=none;fillColor=none;" vertex="1" parent="1">
          <mxGeometry x="557" y="676" width="40" height="30" as="geometry" />
        </mxCell>
        <mxCell id="Cmrw6GEEKVq2yBdXiP8Q-40" value="#3" style="text;html=1;align=center;verticalAlign=middle;resizable=0;points=[];autosize=1;strokeColor=none;fillColor=none;" vertex="1" parent="1">
          <mxGeometry x="557" y="706" width="40" height="30" as="geometry" />
        </mxCell>
        <mxCell id="Cmrw6GEEKVq2yBdXiP8Q-41" value="#2" style="text;html=1;align=center;verticalAlign=middle;resizable=0;points=[];autosize=1;strokeColor=none;fillColor=none;" vertex="1" parent="1">
          <mxGeometry x="567" y="330" width="40" height="30" as="geometry" />
        </mxCell>
        <mxCell id="Cmrw6GEEKVq2yBdXiP8Q-48" style="edgeStyle=orthogonalEdgeStyle;rounded=0;orthogonalLoop=1;jettySize=auto;html=1;exitX=0;exitY=0;exitDx=0;exitDy=0;entryX=0.318;entryY=1.03;entryDx=0;entryDy=0;strokeWidth=2;strokeColor=light-dark(#000000,#99FF99);entryPerimeter=0;" edge="1" parent="1" source="Cmrw6GEEKVq2yBdXiP8Q-17" target="Cmrw6GEEKVq2yBdXiP8Q-28">
          <mxGeometry relative="1" as="geometry">
            <mxPoint x="570" y="550" as="targetPoint" />
            <Array as="points">
              <mxPoint x="560" y="650" />
              <mxPoint x="560" y="480" />
              <mxPoint x="674" y="480" />
            </Array>
          </mxGeometry>
        </mxCell>
        <mxCell id="Cmrw6GEEKVq2yBdXiP8Q-49" style="edgeStyle=orthogonalEdgeStyle;rounded=0;orthogonalLoop=1;jettySize=auto;html=1;exitX=0.25;exitY=0;exitDx=0;exitDy=0;entryX=0.361;entryY=1.017;entryDx=0;entryDy=0;entryPerimeter=0;dashed=1;dashPattern=8 8;" edge="1" parent="1" source="Cmrw6GEEKVq2yBdXiP8Q-3" target="Cmrw6GEEKVq2yBdXiP8Q-17">
          <mxGeometry relative="1" as="geometry" />
        </mxCell>
        <mxCell id="Cmrw6GEEKVq2yBdXiP8Q-50" style="edgeStyle=orthogonalEdgeStyle;rounded=0;orthogonalLoop=1;jettySize=auto;html=1;exitX=0;exitY=0;exitDx=0;exitDy=0;entryX=0.343;entryY=0;entryDx=0;entryDy=0;entryPerimeter=0;strokeWidth=2;strokeColor=light-dark(#000000,#99FF99);" edge="1" parent="1" source="Cmrw6GEEKVq2yBdXiP8Q-28" target="Cmrw6GEEKVq2yBdXiP8Q-17">
          <mxGeometry relative="1" as="geometry">
            <Array as="points">
              <mxPoint x="550" y="303" />
              <mxPoint x="550" y="570" />
              <mxPoint x="670" y="570" />
            </Array>
          </mxGeometry>
        </mxCell>
        <mxCell id="Cmrw6GEEKVq2yBdXiP8Q-54" value="&lt;div&gt;GE5 (&lt;b&gt;WBTC&lt;/b&gt;)&lt;/div&gt;" style="text;html=1;align=center;verticalAlign=middle;resizable=0;points=[];autosize=1;strokeColor=none;fillColor=none;fontSize=23;" vertex="1" parent="1">
          <mxGeometry x="955" y="290" width="160" height="40" as="geometry" />
        </mxCell>
        <mxCell id="Cmrw6GEEKVq2yBdXiP8Q-55" value="&lt;div&gt;GE6 (&lt;b&gt;TT&lt;/b&gt;)&lt;/div&gt;" style="text;html=1;align=center;verticalAlign=middle;resizable=0;points=[];autosize=1;strokeColor=none;fillColor=none;fontSize=23;" vertex="1" parent="1">
          <mxGeometry x="916" y="636" width="120" height="40" as="geometry" />
        </mxCell>
        <mxCell id="Cmrw6GEEKVq2yBdXiP8Q-56" style="edgeStyle=orthogonalEdgeStyle;rounded=0;orthogonalLoop=1;jettySize=auto;html=1;exitX=0.5;exitY=1;exitDx=0;exitDy=0;entryX=0.407;entryY=-0.1;entryDx=0;entryDy=0;entryPerimeter=0;dashed=1;dashPattern=8 8;" edge="1" parent="1" source="Cmrw6GEEKVq2yBdXiP8Q-2" target="Cmrw6GEEKVq2yBdXiP8Q-54">
          <mxGeometry relative="1" as="geometry">
            <Array as="points">
              <mxPoint x="855" y="260" />
              <mxPoint x="1020" y="260" />
            </Array>
          </mxGeometry>
        </mxCell>
        <mxCell id="Cmrw6GEEKVq2yBdXiP8Q-57" value="&lt;div&gt;GE7 (&lt;b&gt;TT&lt;/b&gt;)&lt;/div&gt;" style="text;html=1;align=center;verticalAlign=middle;resizable=0;points=[];autosize=1;strokeColor=none;fillColor=none;fontSize=23;" vertex="1" parent="1">
          <mxGeometry x="1155" y="290" width="120" height="40" as="geometry" />
        </mxCell>
        <mxCell id="Cmrw6GEEKVq2yBdXiP8Q-58" value="&lt;div&gt;GE8 (&lt;b&gt;WBTC&lt;/b&gt;)&lt;/div&gt;" style="text;html=1;align=center;verticalAlign=middle;resizable=0;points=[];autosize=1;strokeColor=none;fillColor=none;fontSize=23;" vertex="1" parent="1">
          <mxGeometry x="1115" y="636" width="160" height="40" as="geometry" />
        </mxCell>
        <mxCell id="Cmrw6GEEKVq2yBdXiP8Q-27" style="edgeStyle=orthogonalEdgeStyle;rounded=0;orthogonalLoop=1;jettySize=auto;html=1;exitX=1;exitY=0;exitDx=0;exitDy=0;entryX=-0.011;entryY=0.304;entryDx=0;entryDy=0;entryPerimeter=0;strokeWidth=2;strokeColor=light-dark(#000000,#99FF99);" edge="1" parent="1" source="Cmrw6GEEKVq2yBdXiP8Q-28" target="Cmrw6GEEKVq2yBdXiP8Q-54">
          <mxGeometry relative="1" as="geometry">
            <mxPoint x="921" y="303" as="targetPoint" />
            <Array as="points">
              <mxPoint x="900" y="303" />
            </Array>
          </mxGeometry>
        </mxCell>
        <mxCell id="Cmrw6GEEKVq2yBdXiP8Q-16" style="edgeStyle=orthogonalEdgeStyle;rounded=0;orthogonalLoop=1;jettySize=auto;html=1;exitX=1;exitY=0;exitDx=0;exitDy=0;entryX=0.02;entryY=0.355;entryDx=0;entryDy=0;entryPerimeter=0;strokeWidth=2;strokeColor=light-dark(#000000,#99FF99);" edge="1" parent="1" source="Cmrw6GEEKVq2yBdXiP8Q-17" target="Cmrw6GEEKVq2yBdXiP8Q-55">
          <mxGeometry relative="1" as="geometry">
            <mxPoint x="911" y="650" as="targetPoint" />
            <Array as="points">
              <mxPoint x="850" y="650" />
              <mxPoint x="850" y="650" />
            </Array>
          </mxGeometry>
        </mxCell>
        <mxCell id="Cmrw6GEEKVq2yBdXiP8Q-59" style="edgeStyle=orthogonalEdgeStyle;rounded=0;orthogonalLoop=1;jettySize=auto;html=1;exitX=0.5;exitY=0;exitDx=0;exitDy=0;entryX=0.466;entryY=0.9;entryDx=0;entryDy=0;entryPerimeter=0;dashed=1;dashPattern=8 8;" edge="1" parent="1" source="Cmrw6GEEKVq2yBdXiP8Q-3" target="Cmrw6GEEKVq2yBdXiP8Q-55">
          <mxGeometry relative="1" as="geometry" />
        </mxCell>
        <mxCell id="Cmrw6GEEKVq2yBdXiP8Q-60" style="edgeStyle=orthogonalEdgeStyle;rounded=0;orthogonalLoop=1;jettySize=auto;html=1;exitX=0.75;exitY=0;exitDx=0;exitDy=0;entryX=0.5;entryY=0.898;entryDx=0;entryDy=0;entryPerimeter=0;dashed=1;dashPattern=8 8;" edge="1" parent="1" source="Cmrw6GEEKVq2yBdXiP8Q-3" target="Cmrw6GEEKVq2yBdXiP8Q-58">
          <mxGeometry relative="1" as="geometry">
            <Array as="points">
              <mxPoint x="878" y="900" />
              <mxPoint x="1195" y="900" />
            </Array>
          </mxGeometry>
        </mxCell>
        <mxCell id="Cmrw6GEEKVq2yBdXiP8Q-61" style="edgeStyle=orthogonalEdgeStyle;rounded=0;orthogonalLoop=1;jettySize=auto;html=1;exitX=0.75;exitY=1;exitDx=0;exitDy=0;entryX=0.478;entryY=-0.073;entryDx=0;entryDy=0;entryPerimeter=0;dashed=1;dashPattern=8 8;" edge="1" parent="1" source="Cmrw6GEEKVq2yBdXiP8Q-2" target="Cmrw6GEEKVq2yBdXiP8Q-57">
          <mxGeometry relative="1" as="geometry" />
        </mxCell>
        <mxCell id="Cmrw6GEEKVq2yBdXiP8Q-62" style="edgeStyle=orthogonalEdgeStyle;rounded=0;orthogonalLoop=1;jettySize=auto;html=1;exitX=1;exitY=0.25;exitDx=0;exitDy=0;" edge="1" parent="1" source="Cmrw6GEEKVq2yBdXiP8Q-28">
          <mxGeometry relative="1" as="geometry">
            <mxPoint x="960" y="638" as="targetPoint" />
          </mxGeometry>
        </mxCell>
        <mxCell id="Cmrw6GEEKVq2yBdXiP8Q-63" value="&lt;div align=&quot;left&quot;&gt;#2: 2000&lt;/div&gt;" style="text;html=1;align=left;verticalAlign=middle;resizable=0;points=[];autosize=1;strokeColor=none;fillColor=none;fontColor=default;" vertex="1" parent="1">
          <mxGeometry x="836" y="330" width="70" height="30" as="geometry" />
        </mxCell>
        <mxCell id="Cmrw6GEEKVq2yBdXiP8Q-64" style="edgeStyle=orthogonalEdgeStyle;rounded=0;orthogonalLoop=1;jettySize=auto;html=1;exitX=1;exitY=0.5;exitDx=0;exitDy=0;entryX=0.635;entryY=1.055;entryDx=0;entryDy=0;entryPerimeter=0;" edge="1" parent="1" source="Cmrw6GEEKVq2yBdXiP8Q-28" target="Cmrw6GEEKVq2yBdXiP8Q-57">
          <mxGeometry relative="1" as="geometry">
            <mxPoint x="1165" y="370" as="targetPoint" />
            <Array as="points">
              <mxPoint x="1231" y="363" />
            </Array>
          </mxGeometry>
        </mxCell>
        <mxCell id="Cmrw6GEEKVq2yBdXiP8Q-65" value="&lt;div align=&quot;left&quot;&gt;#2: 38000&lt;/div&gt;" style="text;html=1;align=left;verticalAlign=middle;resizable=0;points=[];autosize=1;strokeColor=none;fillColor=none;fontColor=default;" vertex="1" parent="1">
          <mxGeometry x="836" y="360" width="80" height="30" as="geometry" />
        </mxCell>
        <mxCell id="Cmrw6GEEKVq2yBdXiP8Q-68" style="edgeStyle=orthogonalEdgeStyle;rounded=0;orthogonalLoop=1;jettySize=auto;html=1;exitX=1;exitY=0.25;exitDx=0;exitDy=0;entryX=0.451;entryY=1.072;entryDx=0;entryDy=0;entryPerimeter=0;fontFamily=Helvetica;fontSize=12;fontColor=default;autosize=1;resizable=0;" edge="1" parent="1" source="Cmrw6GEEKVq2yBdXiP8Q-17" target="Cmrw6GEEKVq2yBdXiP8Q-54">
          <mxGeometry relative="1" as="geometry">
            <Array as="points">
              <mxPoint x="910" y="680" />
              <mxPoint x="910" y="710" />
              <mxPoint x="1027" y="710" />
            </Array>
          </mxGeometry>
        </mxCell>
        <mxCell id="Cmrw6GEEKVq2yBdXiP8Q-69" value="#2: 200" style="text;html=1;align=left;verticalAlign=middle;resizable=0;points=[];autosize=1;strokeColor=none;fillColor=none;fontColor=default;" vertex="1" parent="1">
          <mxGeometry x="829" y="679" width="60" height="30" as="geometry" />
        </mxCell>
        <mxCell id="Cmrw6GEEKVq2yBdXiP8Q-70" style="edgeStyle=orthogonalEdgeStyle;rounded=0;orthogonalLoop=1;jettySize=auto;html=1;exitX=1;exitY=0.5;exitDx=0;exitDy=0;entryX=-0.02;entryY=0.52;entryDx=0;entryDy=0;entryPerimeter=0;fontFamily=Helvetica;fontSize=12;fontColor=light-dark(#000000,#99FF99);autosize=1;resizable=0;" edge="1" parent="1" source="Cmrw6GEEKVq2yBdXiP8Q-17" target="Cmrw6GEEKVq2yBdXiP8Q-58">
          <mxGeometry relative="1" as="geometry">
            <Array as="points">
              <mxPoint x="880" y="710" />
              <mxPoint x="880" y="740" />
              <mxPoint x="1090" y="740" />
              <mxPoint x="1090" y="657" />
            </Array>
          </mxGeometry>
        </mxCell>
        <mxCell id="Cmrw6GEEKVq2yBdXiP8Q-71" value="#3: 300" style="text;html=1;align=left;verticalAlign=middle;resizable=0;points=[];autosize=1;strokeColor=none;fillColor=none;fontColor=default;" vertex="1" parent="1">
          <mxGeometry x="829" y="709" width="60" height="30" as="geometry" />
        </mxCell>
        <mxCell id="Cmrw6GEEKVq2yBdXiP8Q-75" value="&lt;font style=&quot;font-size: 50px;&quot;&gt;Autonomi Community Token Exchange&lt;/font&gt;" style="text;html=1;align=center;verticalAlign=middle;resizable=0;points=[];autosize=1;strokeColor=none;fillColor=none;fontFamily=Helvetica;fontSize=12;fontColor=light-dark(#000000,#99FF99);" vertex="1" parent="1">
          <mxGeometry x="-26" y="-100" width="880" height="70" as="geometry" />
        </mxCell>
      </root>
    </mxGraphModel>
  </diagram>
</mxfile>
